<svg xmlns="http://www.w3.org/2000/svg" width="793.701" height="510.236" viewBox="0 0 210 135">
    <style>
        <![CDATA[.B{font-family:JetBrains Mono}.C{fill:#000}.D{font-size:4.233px}.E{text-anchor:middle}.F{stroke:#000}.G{stroke-width:.5}.H{stroke-dashoffset:5.66929}.I{fill:#ccc}.J{font-style:italic}.K{font-weight:600}.L{overflow:visible}.M{fill:context-stroke}.N{fill-rule:evenodd}.O{stroke:context-stroke}.P{stroke-width:1pt}]]></style>
    <defs>
        <marker id="A" refX="0" refY="0" orient="auto-start-reverse" markerWidth="1" markerHeight="1" viewBox="0 0 1 1"
                class="L">
            <path transform="scale(.5)" d="M5.77 0l-8.65 5V-5z" class="M N O P"/>
        </marker>
        <marker id="B" refX="0" refY="0" orient="auto-start-reverse" markerWidth="1" markerHeight="1" viewBox="0 0 1 1"
                class="L">
            <path transform="scale(.5)" d="M5.77 0l-8.65 5V-5z" class="M N O P"/>
        </marker>
        <marker id="C" refX="0" refY="0" orient="auto-start-reverse" markerWidth="1" markerHeight="1" viewBox="0 0 1 1"
                class="L">
            <path transform="scale(.5)" d="M5.77 0l-8.65 5V-5z" class="M N O P"/>
        </marker>
        <marker id="D" refX="0" refY="0" orient="auto-start-reverse" markerWidth="1" markerHeight="1" viewBox="0 0 1 1"
                class="L">
            <path transform="scale(.5)" d="M5.77 0l-8.65 5V-5z" class="M N O P"/>
        </marker>
        <marker id="E" refX="0" refY="0" orient="auto-start-reverse" markerWidth="1" markerHeight="1" viewBox="0 0 1 1"
                class="L">
            <path transform="scale(.5)" d="M5.77 0l-8.65 5V-5z" class="M N O P"/>
        </marker>
        <marker id="F" refX="0" refY="0" orient="auto-start-reverse" markerWidth="1" markerHeight="1" viewBox="0 0 1 1"
                class="L">
            <path transform="scale(.5)" d="M5.77 0l-8.65 5V-5z" class="M N O P"/>
        </marker>
    </defs>
    <rect width="210" height="135" ry="1" fill="#e6e6e6"/>
    <text xml:space="preserve" x="14.543" y="14.915" font-size="8.467" class="B C"><tspan x="14.543" y="14.915">vertex shader</tspan></text>
    <text xml:space="preserve" x="14.534" y="73.476" font-size="8.467" class="B C"><tspan x="14.534" y="73.476">fragment shader</tspan></text>
    <path d="M22 30h45l3 3-3 3H22z" class="F G H I"/>
    <text xml:space="preserve" x="46.143" y="34.433" class="B C D E"><tspan x="46.143" y="34.433">a_Position:vec4</tspan></text>
    <path d="M143 36h48l3 3-3 3h-48z" class="F G H I"/>
    <text xml:space="preserve" x="168.598" y="40.264" class="B C D E"><tspan x="168.598" y="40.264">gl_Position:vec4</tspan></text>
    <path d="M22 90h45l3 3-3 3H22z" class="F G H I"/>
    <text xml:space="preserve" x="46.064" y="94.355" class="B C D E"><tspan x="46.064" y="94.355">a_TexCoord:vec2</tspan></text>
    <path d="M34 42h33l3 3-3 3H34l-3-3z" class="F G H I"/>
    <text xml:space="preserve" x="50.542" y="46.333" class="B C D E"><tspan x="50.542" y="46.333">u_MVP:mat4</tspan></text>
    <g class="F H">
        <path d="M93 30h27v18H93z" stroke-width=".567" class="I"/>
        <g class="G">
            <path d="M70 33h21.142" marker-end="url(#B)"/>
            <path d="M120 39h21" fill="#fff" marker-end="url(#D)"/>
            <path d="M70 45h21.142" marker-end="url(#C)"/>
        </g>
    </g>
    <text xml:space="preserve" x="106.528" y="40.524" class="B C D E"><tspan x="106.528" y="40.524">transform</tspan></text>
    <text xml:space="preserve" x="81.212" y="31.274" class="B C D E J K"><tspan x="81.212" y="31.274">:lhs</tspan></text>
    <text xml:space="preserve" x="81.212" y="43.274" class="B C D E J K"><tspan x="81.212" y="43.274">:rhs</tspan></text>
    <text xml:space="preserve" x="131.077" y="37.221" class="B C D E J K"><tspan x="131.077" y="37.221">:out</tspan></text>
    <path d="M146 96h48l3 3-3 3h-48z" class="F G H I"/>
    <text xml:space="preserve" x="171.668" y="100.185" class="B C D E"><tspan x="171.668" y="100.185">f_FragColor:vec4</tspan></text>
    <path d="M126 99h18" fill="#fff" marker-end="url(#F)" class="F G H"/>
    <text xml:space="preserve" x="135.577" y="97.221" class="B C D E J K"><tspan x="135.577" y="97.221">:out</tspan></text>
    <g class="F G H I">
        <path d="M99 90h27v18H99z"/>
        <path d="M70 93h27" marker-end="url(#A)"/>
    </g>
    <text xml:space="preserve" x="84.037" y="91.274" class="B C D E J K"><tspan x="84.037" y="91.274">:coord</tspan></text>
    <text xml:space="preserve" x="90.044" y="103.221" class="B C D E J K"><tspan x="90.044" y="103.221">:tex</tspan></text>
    <path d="M16 102h63l3 3-3 3H16l-3-3z" class="F G H I"/>
    <text xml:space="preserve" x="47.496" y="106.264" class="B C D E"><tspan x="47.496" y="106.264">u_DiffuseTex:sampler2D</tspan></text>
    <path d="M82 105h15" marker-end="url(#E)" class="F G H I"/>
    <text xml:space="preserve" x="112.578" y="100.471" class="B C D"><tspan x="112.578" y="100.471" class="E">texture</tspan></text>
    <text xml:space="preserve" x="205" y="132" font-size="2.822" text-anchor="end" class="B C J K"><tspan x="205" y="132">simple shader - using nodes</tspan></text>
</svg>